<?xml version="1.0" standalone="no"?>
<!DOCTYPE svg PUBLIC "-//W3C//DTD SVG 20010904//EN"
 "http://www.w3.org/TR/2001/REC-SVG-20010904/DTD/svg10.dtd">
<svg version="1.0" xmlns="http://www.w3.org/2000/svg"
 width="160.000000pt" height="160.000000pt" viewBox="0 0 160.000000 160.000000"
 preserveAspectRatio="xMidYMid meet">

<g transform="translate(0.000000,160.000000) scale(0.100000,-0.100000)"
fill="#000000" stroke="none">
<path d="M780 982 c0 -26 -75 -59 -96 -41 -21 17 -42 -4 -25 -25 18 -21 -15
-96 -41 -96 -11 0 -18 -7 -18 -20 0 -13 7 -20 18 -20 25 0 57 -77 40 -97 -17
-21 6 -41 30 -26 13 7 24 8 36 1 13 -8 21 -7 27 3 13 21 11 25 -14 36 -13 6
-32 28 -42 48 -23 50 -14 100 25 140 26 25 38 30 80 30 66 0 110 -40 117 -109
5 -44 23 -61 38 -36 3 6 15 10 26 10 12 0 19 7 19 20 0 13 -7 20 -18 20 -25 0
-57 77 -40 97 17 20 -6 41 -26 24 -21 -18 -96 15 -96 41 0 11 -7 18 -20 18
-13 0 -20 -7 -20 -18z"/>
<path d="M770 825 c-26 -32 13 -81 48 -59 34 22 22 74 -18 74 -10 0 -23 -7
-30 -15z"/>
<path d="M905 690 c-44 -45 -55 -48 -73 -20 -15 24 -30 26 -39 4 -6 -16 42
-74 62 -74 18 0 118 107 111 119 -11 17 -20 13 -61 -29z"/>
</g>
</svg>
