<?xml version="1.0" standalone="no"?>
<!DOCTYPE svg PUBLIC "-//W3C//DTD SVG 20010904//EN"
 "http://www.w3.org/TR/2001/REC-SVG-20010904/DTD/svg10.dtd">
<svg version="1.0" xmlns="http://www.w3.org/2000/svg"
 width="160.000000pt" height="160.000000pt" viewBox="0 0 160.000000 160.000000"
 preserveAspectRatio="xMidYMid meet">

<g transform="translate(0.000000,160.000000) scale(0.100000,-0.100000)"
fill="#000000" stroke="none">
<path d="M705 1006 c-60 -28 -87 -56 -114 -116 -51 -113 -2 -243 113 -296 82
-38 173 -28 238 27 l33 27 -24 26 c-19 20 -27 23 -38 15 -10 -9 -10 -15 -2
-25 8 -9 5 -16 -13 -27 -38 -24 -78 -30 -78 -12 0 8 -9 15 -20 15 -11 0 -20
-7 -20 -16 0 -16 -9 -15 -67 7 -26 10 -37 25 -23 34 8 5 7 11 -1 21 -8 10 -15
11 -25 3 -10 -8 -16 -4 -27 18 -26 51 -30 73 -13 73 9 0 16 9 16 20 0 11 -7
20 -16 20 -11 0 -14 6 -8 23 20 65 57 107 116 132 104 43 217 -16 252 -132 7
-21 4 -23 -27 -23 -21 0 -41 -7 -52 -20 -18 -20 -17 -20 53 -20 71 0 72 0 72
26 0 82 -55 163 -134 200 -66 31 -127 31 -191 0z"/>
<path d="M755 910 c-34 -13 -65 -55 -72 -94 -5 -32 -3 -36 16 -36 16 0 21 6
21 25 0 39 43 77 83 73 35 -3 42 -16 15 -29 -10 -5 -26 -13 -35 -18 -10 -4
-18 -18 -18 -31 0 -48 65 -52 73 -4 2 10 22 38 45 61 31 33 38 46 29 55 -8 8
-15 8 -25 -1 -11 -8 -22 -9 -41 -1 -32 12 -63 12 -91 0z"/>
</g>
</svg>
