<?xml version="1.0" standalone="no"?>
<!DOCTYPE svg PUBLIC "-//W3C//DTD SVG 20010904//EN"
 "http://www.w3.org/TR/2001/REC-SVG-20010904/DTD/svg10.dtd">
<svg version="1.0" xmlns="http://www.w3.org/2000/svg"
 width="160.000000pt" height="160.000000pt" viewBox="0 0 160.000000 160.000000"
 preserveAspectRatio="xMidYMid meet">

<g transform="translate(0.000000,160.000000) scale(0.100000,-0.100000)"
fill="#000000" stroke="none">
<path d="M584 967 c-3 -8 -4 -52 -2 -98 l3 -84 135 0 135 0 0 95 0 95 -133 3
c-104 2 -134 0 -138 -11z m236 -87 l0 -60 -100 0 -100 0 0 60 0 60 100 0 100
0 0 -60z"/>
<path d="M880 881 c0 -12 5 -21 10 -21 6 0 10 -27 10 -60 l0 -60 -100 0 c-60
0 -100 4 -100 10 0 6 -9 10 -21 10 -16 0 -20 -5 -17 -27 l3 -28 135 0 135 0 0
95 0 95 -27 3 c-23 3 -28 -1 -28 -17z"/>
<path d="M960 801 c0 -12 5 -21 10 -21 6 0 10 -27 10 -60 l0 -60 -100 0 c-60
0 -100 4 -100 10 0 6 -9 10 -21 10 -16 0 -20 -5 -17 -27 l3 -28 135 0 135 0 0
95 0 95 -27 3 c-23 3 -28 -1 -28 -17z"/>
</g>
</svg>
